<svg xmlns="http://www.w3.org/2000/svg" xmlns:xlink="http://www.w3.org/1999/xlink" width="213.099" height="172.353" viewBox="0 0 213.099 172.353"><defs><linearGradient id="a" x1="0.874" y1="0.126" x2="-0.018" y2="0.673" gradientUnits="objectBoundingBox"><stop offset="0" stop-color="#ff0672"/><stop offset="0" stop-color="#8c20df"/><stop offset="1" stop-color="#6a9cdf"/></linearGradient><linearGradient id="c" x1="1.706" y1="1.387" x2="-0.412" y2="-0.03" gradientUnits="objectBoundingBox"><stop offset="0" stop-color="#6ee4dc"/><stop offset="0.807" stop-color="#7477df"/><stop offset="1" stop-color="#6a9cdf"/></linearGradient><linearGradient id="d" x1="1.149" y1="1.136" x2="-0.616" y2="0.057" gradientUnits="objectBoundingBox"><stop offset="0" stop-color="#6ee4dc"/><stop offset="0.793" stop-color="#7477df"/><stop offset="1" stop-color="#6a9cdf"/></linearGradient></defs><g transform="translate(-1119.49 -374.918)"><path d="M110.917,69.616c49.589,0,68.66,69.761,68.66,20.172A89.788,89.788,0,1,0,0,89.788C0,139.377,61.328,69.616,110.917,69.616Z" transform="translate(1319.477 521.653) rotate(-173)" fill="url(#a)"/><path d="M110.917,69.616c49.589,0,68.66,69.761,68.66,20.172A89.788,89.788,0,1,0,0,89.788C0,139.377,61.328,69.616,110.917,69.616Z" transform="translate(1319.477 521.653) rotate(-173)" fill="url(#a)" style="mix-blend-mode:overlay;isolation:isolate"/><path d="M89.788,0C139.377,0,75.63,81.607,75.63,131.2c0,46.861,21.064,48.5,21.064,48.5s-4.179-.12-6.906-.12A89.788,89.788,0,0,1,89.788,0Z" transform="translate(1119.49 474.202) rotate(-66.007)" fill="url(#c)"/><path d="M89.788,0C139.377,0,75.63,81.607,75.63,131.2c0,46.861,21.064,48.5,21.064,48.5s-4.179-.12-6.906-.12A89.788,89.788,0,0,1,89.788,0Z" transform="translate(1119.49 474.202) rotate(-66.007)" fill="url(#d)" style="mix-blend-mode:overlay;isolation:isolate"/></g></svg>